<svg width="294" height="103" viewBox="0 0 294 103" fill="none" xmlns="http://www.w3.org/2000/svg">
<path d="M50.237 13.2609C50.3981 19.0446 47.9677 22.7832 43.0285 25.6707C36.9787 29.2053 30.7328 32.844 24.6437 36.3351C17.897 40.2039 16.2157 44.9368 21.0635 51.1765C19.4867 54.6198 13.9987 53.9859 10.9673 53.4865C7.5743 51.4283 6.58559 46.9342 6.77724 43.2521C7.05164 38.0198 9.83048 33.0437 13.6416 29.5049C25.8154 20.3646 38.0022 11.2375 50.2065 2.13199C50.2065 5.84452 50.2195 9.55271 50.237 13.2609Z" fill="url(#paint0_linear_21_104)"/>
<path d="M21.0634 51.1808C21.0634 51.1808 20.3274 50.586 19.1122 49.5091C13.3585 44.3941 5.84949 36.4914 13.6416 29.5135C11.0718 31.4545 8.92451 33.7949 7.0734 36.2699C1.55927 43.6299 2.63073 55.4709 2.89642 64.3072C3.02273 68.5538 8.05776 69.496 11.2547 67.7982C14.7784 65.9268 18.5416 63.8295 21.952 62.0015C27.1874 59.1878 24.6132 54.0293 21.0634 51.1808Z" fill="url(#paint1_linear_21_104)"/>
<path d="M3.07937 89.8607C2.91821 84.077 5.34426 80.3384 10.2878 77.4508C16.3377 73.9163 22.5835 70.2776 28.6726 66.7822C35.4194 62.9133 37.1006 58.1804 32.2572 51.9407C33.8339 48.4974 39.3219 49.1314 42.3534 49.6307C45.7464 51.6889 46.7351 56.1874 46.5435 59.8652C46.2691 65.0931 43.4859 70.0735 39.6791 73.6124C27.5053 82.7613 15.3228 91.8885 3.11421 100.99C3.11421 97.2814 3.10115 93.5689 3.07937 89.8607Z" fill="url(#paint2_linear_21_104)"/>
<path d="M32.2572 51.9407C32.2572 51.9407 32.9933 52.5356 34.2085 53.6125C39.9622 58.7275 47.4712 66.6302 39.6791 73.608C42.2489 71.6671 44.3918 69.3267 46.2429 66.8517C51.7614 59.4917 50.6856 47.6464 50.4199 38.8144C50.2892 34.5678 45.2629 33.6256 42.0616 35.3234C38.5379 37.1905 34.7747 39.2877 31.3643 41.1201C26.129 43.9382 28.7031 49.0923 32.2572 51.9407Z" fill="url(#paint3_linear_21_104)"/>
<path d="M70.3727 51.5369C71.466 51.5369 72.3284 51.246 72.9556 50.6641C73.5828 50.0823 73.8964 49.3354 73.8964 48.4192C73.8964 48.0328 73.8267 47.6724 73.6829 47.338C73.5436 47.0037 73.2866 46.6563 72.9164 46.2959C72.5461 45.9355 72.0322 45.5404 71.3788 45.1062C70.7255 44.6763 69.8892 44.1683 68.8657 43.5864C68.478 43.3563 68.0251 43.0827 67.5155 42.7571C67.0015 42.4314 66.5268 42.0363 66.0868 41.5673C65.6469 41.1027 65.2724 40.5556 64.9631 39.9303C64.6539 39.3051 64.5014 38.5886 64.5014 37.781C64.5014 37.0949 64.6234 36.4566 64.8716 35.8661C65.1199 35.2756 65.5032 34.7632 66.0215 34.3203C66.5398 33.8817 67.2062 33.5387 68.0207 33.2912C68.8308 33.0437 69.8021 32.9221 70.9346 32.9221C71.7099 32.9221 72.4503 32.9873 73.1603 33.1219C73.8659 33.2521 74.4974 33.4605 75.0549 33.7428C75.6124 34.025 76.0524 34.3898 76.379 34.837C76.7057 35.2842 76.8668 35.8357 76.8668 36.487C76.8668 36.9082 76.7972 37.2773 76.6534 37.5943C76.514 37.9112 76.3311 38.1805 76.109 38.3976C75.8868 38.619 75.6429 38.7797 75.3685 38.8839C75.0941 38.9881 74.8154 39.0402 74.5366 39.0402C74.3058 39.0402 74.0575 38.9968 73.7831 38.9099C73.5087 38.8231 73.2561 38.6755 73.0296 38.4757C72.7988 38.2716 72.6115 38.0068 72.459 37.6724C72.3109 37.3381 72.2325 36.9256 72.2325 36.4306C72.2325 35.5317 72.5331 34.7241 73.1341 34.0033C73.1341 33.9512 73.0862 33.9078 72.9904 33.873C72.8946 33.8383 72.7639 33.8036 72.6071 33.7688C72.4503 33.7341 72.2761 33.708 72.0888 33.6907C71.9015 33.6733 71.7316 33.6646 71.5705 33.6646C70.6863 33.6646 69.9633 33.9165 69.4014 34.4158C68.8352 34.9195 68.5564 35.5839 68.5564 36.4089C68.5564 36.9386 68.674 37.4119 68.9136 37.8331C69.1532 38.2543 69.4406 38.632 69.776 38.9664C70.1114 39.3007 70.4729 39.5873 70.8605 39.8261C71.2482 40.0649 71.5836 40.2603 71.8667 40.421C72.7857 40.9334 73.6132 41.4154 74.3537 41.8713C75.0941 42.3272 75.7213 42.8048 76.2353 43.2955C76.7449 43.7862 77.1456 44.3159 77.4287 44.8804C77.7118 45.4449 77.8512 46.0875 77.8512 46.8083C77.8512 47.6898 77.6465 48.4627 77.2414 49.1313C76.8364 49.8 76.3006 50.3645 75.6386 50.8204C74.9765 51.2764 74.223 51.6194 73.3737 51.8495C72.5244 52.0797 71.662 52.1926 70.7778 52.1926C70.0199 52.1926 69.2359 52.1101 68.4345 51.9407C67.6331 51.7757 66.897 51.5195 66.2349 51.1765C65.5729 50.8335 65.0241 50.4079 64.5929 49.8956C64.1617 49.3875 63.9439 48.7883 63.9439 48.1023C63.9439 47.8026 63.9875 47.503 64.0746 47.2034C64.1617 46.9038 64.2967 46.6346 64.4709 46.4001C64.6452 46.1613 64.8673 45.9703 65.133 45.8183C65.3987 45.6707 65.7079 45.5925 66.0607 45.5925C66.3264 45.5925 66.6052 45.6403 66.8926 45.7358C67.1844 45.8313 67.4588 45.9833 67.7115 46.183C67.9684 46.3871 68.1732 46.6433 68.3343 46.9603C68.4911 47.2772 68.5739 47.6637 68.5739 48.1196C68.5739 48.4713 68.5085 48.8665 68.3735 49.3094C68.2428 49.7479 68.0164 50.1257 67.6984 50.4427C67.6287 50.5121 67.5939 50.5729 67.5939 50.6294C67.5939 50.751 67.681 50.8682 67.8596 50.9724C68.0338 51.0766 68.2559 51.1722 68.5216 51.2503C68.7873 51.3285 69.0835 51.3936 69.4101 51.45C69.7324 51.5108 70.0548 51.5369 70.3727 51.5369Z" fill="white"/>
<path d="M79.3495 51.8018V51.4066C79.8809 51.4066 80.2903 51.3676 80.5821 51.2894C80.8739 51.2112 81.0874 51.0723 81.218 50.8812C81.3487 50.6858 81.4271 50.421 81.4445 50.0779C81.4619 49.7349 81.4706 49.3007 81.4706 48.7709V35.8574C81.4706 35.662 81.4053 35.5144 81.2703 35.4102C81.1396 35.306 80.9741 35.2539 80.7825 35.2539C80.5865 35.2539 80.3905 35.306 80.1858 35.4102C79.981 35.5144 79.7938 35.6577 79.6152 35.8314C79.6152 35.3754 79.7284 34.9846 79.9593 34.6546C80.1901 34.329 80.4776 34.0554 80.8217 33.8383C81.1658 33.6169 81.5447 33.4562 81.9585 33.352C82.3722 33.2478 82.7643 33.1957 83.1388 33.1957C83.6136 33.1957 84.0404 33.2738 84.4107 33.4345C84.7809 33.5908 85.1119 33.7992 85.4037 34.0554C85.6955 34.3116 85.9482 34.5982 86.1572 34.9152C86.3707 35.2321 86.5536 35.5578 86.7147 35.8922L92.0372 46.8213L97.0156 35.5795C97.1724 35.2104 97.3423 34.8891 97.5165 34.6156C97.6907 34.342 97.9129 34.1119 98.1786 33.9165C98.4443 33.7211 98.7666 33.5778 99.1455 33.4823C99.5244 33.3867 99.9861 33.339 100.535 33.339H103.314V33.7341C102.926 33.7341 102.621 33.7775 102.399 33.8644C102.177 33.9512 102.02 34.0858 101.924 34.2595C101.829 34.4375 101.772 34.6633 101.754 34.9456C101.737 35.2278 101.728 35.5708 101.728 35.9747V49.1704C101.728 49.5569 101.737 49.8956 101.754 50.1865C101.772 50.4774 101.829 50.7119 101.924 50.8856C102.02 51.0636 102.181 51.1939 102.399 51.2807C102.621 51.3676 102.922 51.411 103.314 51.411V51.8061H95.7699V51.411C96.175 51.411 96.4843 51.3676 96.6977 51.2807C96.9111 51.1939 97.0636 51.0593 97.1594 50.8856C97.2552 50.7119 97.3118 50.4774 97.3292 50.1865C97.3467 49.8956 97.3554 49.5569 97.3554 49.1704V36.6216L90.5781 51.932H89.7854L82.2677 36.6216V48.7623C82.2677 49.292 82.2808 49.7262 82.3069 50.0693C82.333 50.4123 82.4115 50.6815 82.5465 50.8725C82.6771 51.0679 82.8862 51.2025 83.1693 51.2807C83.4524 51.3589 83.8575 51.3979 84.3889 51.3979V51.7931H79.3495V51.8018Z" fill="white"/>
<path d="M108.127 51.4066V51.8018H103.889V51.4066C104.311 51.4066 104.686 51.3198 105.012 51.1418C105.339 50.9681 105.539 50.7901 105.609 50.612L112.809 33.1913H113.602L120.483 49.5569C120.571 49.7697 120.684 49.9129 120.814 49.9911C120.945 50.0693 121.084 50.1083 121.224 50.1083C121.49 50.1083 121.768 50.0172 122.06 49.8304C122.352 49.6437 122.583 49.4657 122.761 49.2877C122.761 49.6741 122.666 50.0302 122.47 50.3558C122.274 50.6815 122.017 50.9594 121.69 51.1852C121.363 51.4153 120.989 51.5934 120.566 51.728C120.144 51.8582 119.691 51.9277 119.216 51.9277C118.719 51.9277 118.288 51.8626 117.918 51.728C117.548 51.5977 117.23 51.4153 116.964 51.1852C116.698 50.9551 116.476 50.7032 116.289 50.421C116.102 50.1387 115.949 49.8478 115.827 49.5482L114.477 46.3828H108.148L106.402 50.6077C106.367 50.7119 106.35 50.7944 106.35 50.8465C106.35 51.094 106.537 51.246 106.907 51.3068C107.277 51.3763 107.687 51.4066 108.127 51.4066ZM108.419 45.7315H114.216L111.302 38.7884L108.419 45.7315Z" fill="white"/>
<path d="M124.46 33.3259H131.873C133.019 33.3259 134.06 33.4301 134.983 33.6429C135.911 33.8557 136.699 34.1553 137.352 34.5417C138.006 34.9282 138.502 35.4058 138.846 35.966C139.191 36.5304 139.36 37.1731 139.36 37.8939C139.36 39.0532 138.92 40.0085 138.036 40.7597C137.152 41.5065 135.919 42.0059 134.33 42.249C134.787 42.4618 135.157 42.7657 135.44 43.1609C135.723 43.556 136.068 44.0901 136.473 44.7588C136.913 45.5143 137.331 46.2047 137.718 46.83C138.106 47.4553 138.472 47.9893 138.816 48.4409C139.16 48.8882 139.478 49.2355 139.77 49.483C140.062 49.7305 140.34 49.8521 140.606 49.8521C140.889 49.8521 141.216 49.6654 141.586 49.2963C141.586 49.8434 141.468 50.2994 141.229 50.6685C140.989 51.0375 140.689 51.3371 140.327 51.5673C139.966 51.7974 139.583 51.9581 139.177 52.0536C138.772 52.1491 138.393 52.1969 138.041 52.1969C137.422 52.1969 136.865 52.0536 136.372 51.7627C135.88 51.4717 135.41 51.0419 134.97 50.4687C134.53 49.8955 134.095 49.1834 133.672 48.3324C133.25 47.477 132.797 46.5 132.322 45.3884C132.021 44.685 131.756 44.0988 131.529 43.6342C131.298 43.1696 131.072 42.7657 130.841 42.4314H130.418V49.1617C130.418 49.5482 130.427 49.8869 130.445 50.1778C130.462 50.4687 130.519 50.7032 130.614 50.8769C130.71 51.0549 130.871 51.1852 131.089 51.272C131.311 51.3589 131.616 51.4023 132.004 51.4023V51.7974H124.46V51.4023C124.865 51.4023 125.174 51.3589 125.388 51.272C125.601 51.1852 125.754 51.0506 125.849 50.8769C125.945 50.7032 126.002 50.4687 126.024 50.1778C126.041 49.8869 126.05 49.5482 126.05 49.1617V35.966C126.05 35.5621 126.041 35.2191 126.024 34.9369C126.006 34.6546 125.95 34.4288 125.849 34.2508C125.754 34.0771 125.597 33.9425 125.388 33.8557C125.174 33.7688 124.865 33.7254 124.46 33.7254V33.3259ZM131.873 41.7714C132.087 41.7714 132.361 41.6976 132.709 41.5456C133.054 41.398 133.385 41.1678 133.703 40.8595C134.02 40.5513 134.295 40.1518 134.521 39.6568C134.752 39.1661 134.865 38.5756 134.865 37.8895C134.865 37.2035 134.752 36.6129 134.521 36.1223C134.291 35.6316 134.016 35.2234 133.703 34.9065C133.385 34.5895 133.054 34.355 132.709 34.2074C132.365 34.0597 132.087 33.9816 131.873 33.9816H130.418V41.7714H131.873Z" fill="white"/>
<path d="M141.725 33.3259H157.214V37.5508H156.421C156.421 37.1296 156.412 36.7041 156.395 36.2699C156.378 35.84 156.317 35.4579 156.208 35.1236C156.103 34.7892 155.929 34.5157 155.689 34.3073C155.45 34.0945 155.119 33.9903 154.696 33.9903H151.652V49.1661C151.652 49.5525 151.66 49.8912 151.678 50.1821C151.695 50.473 151.752 50.7075 151.852 50.8812C151.948 51.0592 152.109 51.1895 152.327 51.2763C152.549 51.3632 152.854 51.4066 153.241 51.4066V51.8017H145.693V51.4066C146.098 51.4066 146.408 51.3632 146.621 51.2763C146.834 51.1895 146.987 51.0549 147.083 50.8812C147.179 50.7075 147.235 50.473 147.253 50.1821C147.27 49.8912 147.279 49.5525 147.279 49.1661V33.9859H144.234C143.812 33.9859 143.481 34.0901 143.241 34.3029C143.002 34.5157 142.832 34.7892 142.723 35.1192C142.618 35.4536 142.553 35.8357 142.536 36.2656C142.518 36.6954 142.509 37.1253 142.509 37.5465H141.717V33.3259H141.725Z" fill="white"/>
<path d="M166.108 46.8126C166.108 45.7401 166.439 44.7675 167.101 43.8947C167.763 43.0219 168.678 42.3967 169.841 42.0059C169.327 41.2677 168.908 40.5339 168.582 39.8001C168.255 39.0706 168.094 38.3715 168.094 37.7028C168.094 37.0515 168.246 36.4349 168.556 35.8574C168.865 35.2756 169.279 34.7719 169.801 34.3376C170.32 33.9078 170.916 33.5647 171.587 33.3086C172.258 33.0524 172.963 32.9265 173.704 32.9265C174.27 32.9265 174.802 33.0046 175.307 33.1653C175.808 33.3216 176.256 33.543 176.644 33.8253C177.032 34.1075 177.336 34.4505 177.559 34.8544C177.781 35.2582 177.89 35.7185 177.89 36.2265C177.89 36.7171 177.781 37.1904 177.559 37.6377C177.336 38.0849 177.045 38.4931 176.683 38.8535C176.322 39.2139 175.912 39.5352 175.451 39.8174C174.993 40.0997 174.523 40.3298 174.048 40.5035C174.471 41.0159 174.95 41.5456 175.477 42.1014C176.008 42.6572 176.605 43.239 177.275 43.8556C177.38 43.4344 177.554 43.0002 177.794 42.5617C178.033 42.1231 178.338 41.7193 178.708 41.3459C179.079 40.9768 179.514 40.6728 180.019 40.434C180.525 40.1952 181.091 40.078 181.727 40.078C182.293 40.078 182.785 40.1691 183.208 40.3559C183.63 40.5426 183.983 40.7814 184.266 41.081C184.549 41.3806 184.763 41.7193 184.915 42.0971C185.063 42.4748 185.142 42.8569 185.142 43.2434C185.142 43.5604 185.089 43.873 184.98 44.1813C184.876 44.4896 184.719 44.7588 184.519 44.9846C184.314 45.2147 184.066 45.3971 183.765 45.5404C183.465 45.6793 183.112 45.7531 182.707 45.7531C182.284 45.7531 181.901 45.675 181.57 45.5143C181.235 45.358 180.947 45.1496 180.708 44.8934C180.468 44.6372 180.285 44.3463 180.15 44.0206C180.019 43.695 179.95 43.3563 179.95 43.0046C179.95 42.6529 180.015 42.3229 180.15 42.0146C180.281 41.7063 180.472 41.3763 180.721 41.0246C180.703 40.9203 180.616 40.8682 180.455 40.8682C180.155 40.8682 179.858 40.9855 179.567 41.2243C179.275 41.4631 179.005 41.7584 178.761 42.1101C178.512 42.4618 178.299 42.8352 178.112 43.2304C177.924 43.6255 177.789 43.9729 177.702 44.2725C177.772 44.3072 177.833 44.3506 177.89 44.4027C177.942 44.4548 177.994 44.507 178.046 44.5591C178.26 44.7371 178.53 44.9933 178.865 45.3363C179.201 45.6793 179.523 46.1049 179.832 46.6172C180.141 47.1296 180.411 47.7332 180.638 48.4366C180.869 49.14 180.982 49.9607 180.982 50.8899C180.982 51.6454 180.895 52.4183 180.716 53.1999C180.538 53.9815 180.263 54.6893 179.884 55.3232C179.506 55.9572 179.018 56.4696 178.43 56.869C177.837 57.2642 177.136 57.4639 176.326 57.4639C175.956 57.4639 175.538 57.4031 175.067 57.2772C174.601 57.1556 174.144 56.9081 173.704 56.539C174.074 56.7127 174.484 56.843 174.937 56.9211C175.385 56.9993 175.734 57.0384 175.982 57.0384C176.387 57.0384 176.766 56.9429 177.119 56.7475C177.471 56.5521 177.785 56.2915 178.059 55.9572C178.334 55.6228 178.547 55.232 178.708 54.7848C178.865 54.3376 178.948 53.8643 178.948 53.3736C178.948 52.8829 178.87 52.414 178.708 51.9754C178.547 51.5369 178.347 51.1157 178.099 50.7206C177.85 50.3254 177.572 49.952 177.262 49.6003C176.953 49.2486 176.64 48.9229 176.322 48.6233C175.917 49.7827 175.368 50.6685 174.68 51.2764C173.991 51.8843 173.099 52.1882 172.005 52.1882C171.247 52.1882 170.511 52.0536 169.793 51.78C169.078 51.5065 168.447 51.1287 167.898 50.6467C167.349 50.1648 166.914 49.5916 166.587 48.9316C166.269 48.2759 166.108 47.5682 166.108 46.8126ZM170.132 42.4054C169.727 42.6008 169.435 42.9047 169.257 43.3302C169.078 43.7514 168.991 44.1726 168.991 44.5981C168.991 45.1974 169.139 45.7705 169.44 46.3133C169.74 46.8604 170.128 47.338 170.603 47.7505C171.078 48.163 171.626 48.4887 172.245 48.7275C172.863 48.9663 173.491 49.0836 174.126 49.0836C174.636 49.0836 175.028 49.0098 175.289 48.8578C175.555 48.7101 175.747 48.5017 175.873 48.2369C175.803 48.1674 175.734 48.1022 175.66 48.0371C175.59 47.9763 175.52 47.9199 175.446 47.8634C175.076 47.5465 174.667 47.1904 174.214 46.7953C173.765 46.4001 173.303 45.9659 172.837 45.4883C172.371 45.015 171.901 44.5156 171.435 43.9989C170.973 43.4822 170.537 42.9481 170.132 42.4054ZM171.561 35.5144C171.561 36.1136 171.735 36.7953 172.092 37.5595C172.445 38.3237 173.003 39.1835 173.761 40.1344C174.079 39.9216 174.375 39.6698 174.649 39.3702C174.923 39.0706 175.159 38.7406 175.363 38.3802C175.568 38.0198 175.729 37.6507 175.851 37.2729C175.973 36.8952 176.039 36.5304 176.039 36.1787C176.039 35.7923 175.969 35.4406 175.825 35.1236C175.686 34.8066 175.494 34.533 175.255 34.3073C175.015 34.0771 174.736 33.9034 174.423 33.7775C174.105 33.6559 173.778 33.5908 173.443 33.5908C172.946 33.5908 172.511 33.7428 172.132 34.038C171.753 34.3376 171.561 34.8283 171.561 35.5144Z" fill="white"/>
<path d="M203.413 32.9265C204.084 32.9265 204.772 32.9916 205.478 33.1262C206.183 33.2565 206.828 33.4909 207.412 33.8253C207.995 34.1596 208.47 34.5982 208.84 35.1453C209.21 35.6924 209.398 36.3871 209.398 37.2295C209.398 37.8808 209.154 38.4453 208.67 38.9186C208.182 39.3919 207.555 39.6307 206.776 39.6307C206 39.6307 205.391 39.3528 204.951 38.8014C204.511 38.2456 204.289 37.3989 204.289 36.2525C204.289 36.0571 204.31 35.8444 204.354 35.6056C204.397 35.3667 204.445 35.1453 204.498 34.9325C204.55 34.7198 204.607 34.533 204.668 34.3637C204.729 34.1987 204.776 34.0771 204.811 34.0076C204.846 33.9729 204.864 33.9295 204.864 33.8774C204.864 33.7732 204.755 33.6994 204.533 33.6516C204.31 33.6082 204.088 33.5865 203.857 33.5865C203.291 33.5865 202.751 33.7297 202.228 34.0207C201.706 34.3116 201.244 34.8023 200.839 35.497C200.434 36.1917 200.112 37.1123 199.872 38.2543C199.633 39.3962 199.515 40.8335 199.515 42.5573C199.515 44.2638 199.637 45.6924 199.885 46.8474C200.133 47.998 200.469 48.9229 200.891 49.6176C201.314 50.3124 201.815 50.8074 202.385 51.094C202.96 51.3849 203.566 51.5282 204.197 51.5282C204.885 51.5282 205.53 51.3979 206.131 51.1331C206.732 50.8682 207.263 50.5555 207.734 50.1952C208.2 49.8348 208.592 49.4657 208.897 49.0879C209.206 48.7101 209.415 48.4149 209.52 48.2021C209.52 48.6928 209.389 49.1791 209.123 49.6524C208.858 50.1257 208.483 50.5556 208 50.9333C207.512 51.3111 206.924 51.615 206.227 51.8452C205.53 52.0753 204.75 52.1882 203.884 52.1882C202.49 52.1882 201.235 51.9754 200.125 51.5542C199.014 51.1331 198.069 50.5121 197.294 49.6915C196.518 48.8751 195.922 47.8678 195.508 46.6693C195.094 45.4709 194.885 44.0988 194.885 42.553C194.885 41.0028 195.09 39.6307 195.495 38.4366C195.9 37.2382 196.479 36.2308 197.228 35.4145C197.977 34.5982 198.879 33.9772 199.929 33.5517C200.978 33.1262 202.141 32.9265 203.413 32.9265Z" fill="white"/>
<path d="M211.541 51.4066C211.946 51.4066 212.255 51.3632 212.468 51.2764C212.682 51.1895 212.834 51.0549 212.93 50.8812C213.026 50.7076 213.082 50.4731 213.104 50.1821C213.122 49.8912 213.13 49.5525 213.13 49.1661V35.966C213.13 35.5622 213.122 35.2191 213.104 34.9369C213.087 34.6546 213.03 34.4289 212.93 34.2508C212.834 34.0771 212.677 33.9425 212.468 33.8557C212.255 33.7688 211.946 33.7254 211.541 33.7254V33.3303H219.084V33.7254C218.697 33.7254 218.392 33.7688 218.17 33.8557C217.948 33.9425 217.791 34.0771 217.695 34.2508C217.599 34.4289 217.538 34.6546 217.525 34.9369C217.508 35.2191 217.499 35.5622 217.499 35.966V42.3012H223.192V35.966C223.192 35.5622 223.183 35.2191 223.166 34.9369C223.148 34.6546 223.092 34.4289 222.996 34.2508C222.9 34.0771 222.743 33.9425 222.534 33.8557C222.321 33.7688 222.011 33.7254 221.606 33.7254V33.3303H229.15V33.7254C228.762 33.7254 228.458 33.7688 228.235 33.8557C228.013 33.9425 227.857 34.0771 227.761 34.2508C227.665 34.4289 227.604 34.6546 227.591 34.9369C227.573 35.2191 227.565 35.5622 227.565 35.966V49.1617C227.565 49.5482 227.573 49.8869 227.591 50.1778C227.608 50.4687 227.665 50.7032 227.761 50.8769C227.857 51.0549 228.018 51.1852 228.235 51.272C228.458 51.3589 228.762 51.4023 229.15 51.4023V51.7974H221.606V51.4023C222.011 51.4023 222.321 51.3589 222.534 51.272C222.747 51.1852 222.9 51.0506 222.996 50.8769C223.092 50.7032 223.148 50.4687 223.166 50.1778C223.183 49.8869 223.192 49.5482 223.192 49.1617V42.9568H217.499V49.1574C217.499 49.5439 217.508 49.8825 217.525 50.1735C217.543 50.4644 217.599 50.6989 217.695 50.8726C217.791 51.0506 217.952 51.1808 218.17 51.2677C218.392 51.3545 218.697 51.398 219.084 51.398V51.7931H211.541V51.4066Z" fill="white"/>
<path d="M248.815 42.5617C248.815 44.1118 248.602 45.4839 248.18 46.678C247.757 47.8765 247.16 48.8838 246.394 49.7002C245.627 50.5165 244.704 51.1374 243.628 51.5629C242.552 51.9841 241.367 52.1969 240.083 52.1969C238.793 52.1969 237.613 51.9841 236.533 51.5629C235.457 51.1417 234.534 50.5208 233.767 49.7002C233 48.8838 232.404 47.8765 231.981 46.678C231.559 45.4796 231.345 44.1075 231.345 42.5617C231.345 41.0115 231.559 39.6394 231.981 38.4453C232.404 37.2469 233 36.2395 233.767 35.4232C234.534 34.6069 235.457 33.9859 236.533 33.5604C237.609 33.1392 238.793 32.9265 240.083 32.9265C241.372 32.9265 242.552 33.1392 243.628 33.5604C244.704 33.9816 245.627 34.6025 246.394 35.4232C247.16 36.2395 247.757 37.2469 248.18 38.4453C248.606 39.6437 248.815 41.0159 248.815 42.5617ZM244.186 42.5617C244.186 40.8205 244.059 39.3745 243.802 38.2195C243.545 37.0689 243.219 36.1483 242.822 35.4623C242.426 34.7762 241.982 34.2942 241.498 34.012C241.015 33.7297 240.54 33.5908 240.083 33.5908C239.625 33.5908 239.15 33.7297 238.667 34.012C238.184 34.2942 237.739 34.7762 237.343 35.4623C236.947 36.1483 236.62 37.0689 236.363 38.2195C236.106 39.3702 235.98 40.8205 235.98 42.5617C235.98 44.3029 236.106 45.7531 236.363 46.9038C236.62 48.0545 236.947 48.975 237.343 49.6611C237.739 50.3471 238.179 50.8335 238.667 51.1113C239.15 51.3936 239.625 51.5325 240.083 51.5325C240.54 51.5325 241.015 51.3936 241.498 51.1113C241.982 50.8291 242.426 50.3471 242.822 49.6611C243.219 48.975 243.545 48.0545 243.802 46.9038C244.055 45.7531 244.186 44.3029 244.186 42.5617Z" fill="white"/>
<path d="M250.828 51.4066C251.233 51.4066 251.542 51.3632 251.755 51.2764C251.969 51.1895 252.121 51.0549 252.217 50.8812C252.313 50.7076 252.37 50.4731 252.391 50.1821C252.409 49.8912 252.418 49.5525 252.418 49.1661V35.966C252.418 35.5622 252.409 35.2191 252.391 34.9369C252.374 34.6546 252.317 34.4289 252.217 34.2508C252.121 34.0771 251.965 33.9425 251.755 33.8557C251.542 33.7688 251.233 33.7254 250.828 33.7254V33.3303H258.372V33.7254C257.984 33.7254 257.679 33.7688 257.457 33.8557C257.235 33.9425 257.078 34.0771 256.982 34.2508C256.886 34.4289 256.825 34.6546 256.812 34.9369C256.795 35.2191 256.786 35.5622 256.786 35.966V49.1617C256.786 49.5482 256.795 49.8869 256.812 50.1778C256.83 50.4687 256.886 50.7032 256.982 50.8769C257.078 51.0549 257.239 51.1852 257.457 51.272C257.679 51.3589 257.984 51.4023 258.372 51.4023V51.7974H250.828V51.4066Z" fill="white"/>
<path d="M269.099 32.9265C269.77 32.9265 270.458 32.9916 271.164 33.1262C271.869 33.2565 272.514 33.4909 273.098 33.8253C273.681 34.1596 274.156 34.5982 274.526 35.1453C274.897 35.6924 275.084 36.3871 275.084 37.2295C275.084 37.8808 274.84 38.4453 274.356 38.9186C273.869 39.3919 273.241 39.6307 272.462 39.6307C271.686 39.6307 271.077 39.3528 270.637 38.8014C270.197 38.2456 269.975 37.3989 269.975 36.2525C269.975 36.0571 269.997 35.8444 270.04 35.6056C270.084 35.3667 270.132 35.1453 270.184 34.9325C270.236 34.7198 270.293 34.533 270.354 34.3637C270.415 34.1987 270.463 34.0771 270.497 34.0076C270.532 33.9729 270.55 33.9295 270.55 33.8774C270.55 33.7732 270.441 33.6994 270.219 33.6516C269.997 33.6082 269.774 33.5865 269.544 33.5865C268.977 33.5865 268.437 33.7297 267.915 34.0207C267.392 34.3116 266.93 34.8023 266.525 35.497C266.12 36.1917 265.798 37.1123 265.558 38.2543C265.319 39.3962 265.201 40.8335 265.201 42.5573C265.201 44.2638 265.323 45.6924 265.571 46.8474C265.82 47.998 266.155 48.9229 266.577 49.6176C267 50.3124 267.501 50.8074 268.071 51.094C268.646 51.3849 269.252 51.5282 269.883 51.5282C270.571 51.5282 271.216 51.3979 271.817 51.1331C272.418 50.8682 272.95 50.5555 273.42 50.1952C273.886 49.8348 274.278 49.4657 274.583 49.0879C274.892 48.7101 275.101 48.4149 275.206 48.2021C275.206 48.6928 275.075 49.1791 274.809 49.6524C274.544 50.1257 274.169 50.5556 273.686 50.9333C273.198 51.3111 272.61 51.615 271.913 51.8452C271.216 52.0753 270.436 52.1882 269.57 52.1882C268.176 52.1882 266.922 51.9754 265.811 51.5542C264.7 51.1331 263.755 50.5121 262.98 49.6915C262.204 48.8751 261.608 47.8678 261.194 46.6693C260.78 45.4709 260.571 44.0988 260.571 42.553C260.571 41.0028 260.776 39.6307 261.181 38.4366C261.586 37.2382 262.165 36.2308 262.914 35.4145C263.664 34.5982 264.565 33.9772 265.615 33.5517C266.665 33.1392 267.827 32.9265 269.099 32.9265Z" fill="white"/>
<path d="M277.227 51.4066C277.632 51.4066 277.941 51.3632 278.154 51.2764C278.368 51.1895 278.52 51.0549 278.616 50.8812C278.712 50.7075 278.769 50.4731 278.79 50.1821C278.808 49.8912 278.817 49.5525 278.817 49.1661V35.966C278.817 35.5622 278.808 35.2191 278.79 34.9369C278.773 34.6546 278.716 34.4289 278.616 34.2508C278.52 34.0771 278.364 33.9425 278.154 33.8557C277.941 33.7688 277.632 33.7254 277.227 33.7254V33.3303H291.391V37.5552H290.598C290.598 37.134 290.59 36.7085 290.572 36.2743C290.555 35.8444 290.494 35.4623 290.385 35.1279C290.28 34.7936 290.106 34.52 289.871 34.3116C289.631 34.0988 289.3 33.9946 288.878 33.9946H283.185V42.3098H286.23C286.53 42.3098 286.761 42.2273 286.918 42.058C287.075 41.893 287.197 41.6802 287.275 41.424C287.353 41.1679 287.397 40.8856 287.406 40.5773C287.414 40.269 287.419 39.9651 287.419 39.6655H288.211V45.6055H287.419C287.419 45.3059 287.414 45.002 287.406 44.6937C287.397 44.3854 287.353 44.1031 287.275 43.847C287.197 43.5908 287.075 43.3823 286.918 43.213C286.761 43.048 286.53 42.9612 286.23 42.9612H283.185V51.1418H289.405C289.827 51.1418 290.158 51.0375 290.398 50.8248C290.638 50.612 290.807 50.3428 290.916 50.0085C291.021 49.6741 291.086 49.292 291.104 48.8621C291.121 48.4323 291.13 48.0024 291.13 47.5812H291.922V51.8061H277.227V51.4066Z" fill="white"/>
<path d="M75.1202 60.6511H78.2824V60.764C77.9862 60.764 77.7858 60.7857 77.6813 60.8291C77.5898 60.8682 77.5158 60.9333 77.4592 61.0245C77.4025 61.1157 77.372 61.2155 77.372 61.3284C77.372 61.4674 77.4243 61.6628 77.5332 61.9103L77.6639 62.2229L79.2275 66.031L80.3164 62.7483C80.4558 62.3271 80.5255 62.0145 80.5255 61.8061C80.5255 61.6541 80.4993 61.5021 80.4427 61.3588C80.3861 61.2155 80.3164 61.094 80.2249 61.0071C80.1378 60.9203 80.0376 60.8595 79.9244 60.8204C79.8112 60.7857 79.6674 60.764 79.4932 60.764V60.6511H82.725V60.764C82.529 60.764 82.3853 60.7726 82.2938 60.7857C82.2067 60.7987 82.124 60.8291 82.0456 60.8725C81.9454 60.9333 81.8626 61.0201 81.8016 61.1287C81.7407 61.2373 81.7102 61.3632 81.7102 61.4934C81.7102 61.615 81.7581 61.8234 81.8496 62.1187L83.0865 66.0918L84.4672 62.7092C84.6807 62.1925 84.7896 61.7887 84.7896 61.5065C84.7896 61.2069 84.6894 60.9984 84.4934 60.8725C84.3714 60.7987 84.1885 60.764 83.9446 60.764V60.6511H86.2705V60.764C86.044 60.7857 85.8741 60.8291 85.7608 60.8899C85.6432 60.9507 85.53 61.0636 85.4168 61.2286C85.2513 61.463 85.0378 61.8842 84.7896 62.4965L82.725 67.4899H82.5203L80.7302 62.1534L78.9139 67.4899H78.6874L76.44 62.097L76.2875 61.7323C76.183 61.4848 76.0959 61.3067 76.0262 61.1938C75.9565 61.0809 75.8694 60.9984 75.7692 60.9333C75.6908 60.8812 75.6037 60.8421 75.5079 60.8161C75.412 60.7944 75.2814 60.7726 75.1115 60.7596V60.6511H75.1202Z" fill="white"/>
<path d="M88.0867 64.7674C88.0737 64.9324 88.065 65.0497 88.065 65.1235C88.065 65.4144 88.1085 65.6966 88.1913 65.9745C88.2784 66.2524 88.3916 66.4826 88.5397 66.6649C88.6922 66.8516 88.8751 66.9993 89.0972 67.1078C89.3194 67.2164 89.5502 67.2685 89.7941 67.2685C89.9727 67.2685 90.1469 67.2381 90.3081 67.1773C90.4692 67.1165 90.6043 67.034 90.7131 66.9255C90.8351 66.8082 90.9353 66.6215 91.0224 66.3653L91.1269 66.4001C91.0398 66.7909 90.8525 67.0861 90.5651 67.2859C90.2776 67.4856 89.8987 67.5855 89.4195 67.5855C89.0058 67.5855 88.653 67.5203 88.3568 67.3901C88.0606 67.2598 87.8123 67.0601 87.6076 66.7865C87.3245 66.4087 87.1808 65.9441 87.1808 65.3927C87.1808 64.6415 87.4508 64.051 87.9909 63.6254C88.3829 63.3128 88.8315 63.1608 89.3324 63.1608C89.6025 63.1608 89.8464 63.2086 90.0772 63.3041C90.3037 63.3996 90.4997 63.5386 90.6565 63.7166C90.9004 63.9989 91.0224 64.3506 91.0224 64.7674H88.0867ZM90.2776 64.572C90.2558 64.2377 90.1905 63.9815 90.0947 63.7991C90.0032 63.6341 89.8856 63.5082 89.7331 63.4127C89.5807 63.3171 89.4239 63.2694 89.254 63.2694C88.9666 63.2694 88.7139 63.3953 88.5005 63.6385C88.2871 63.8816 88.1564 64.1986 88.1172 64.572H90.2776Z" fill="white"/>
<path d="M95.8875 67.4943V67.377C96.0835 67.3683 96.2403 67.338 96.3579 67.2945C96.4755 67.2511 96.58 67.1816 96.6715 67.0861C96.7804 66.9776 96.8501 66.8429 96.8893 66.6779C96.9241 66.5129 96.9459 66.2611 96.9459 65.9181V62.2229C96.9459 61.8799 96.9285 61.6237 96.8893 61.463C96.8544 61.298 96.7804 61.1634 96.6715 61.0592C96.58 60.9637 96.4755 60.8942 96.3536 60.8508C96.2316 60.8074 96.0792 60.7813 95.8875 60.7683V60.6554H99.189C99.5244 60.6554 99.7422 60.6597 99.8467 60.6641C100.23 60.6945 100.544 60.7857 100.796 60.9333C101.014 61.0679 101.184 61.2416 101.301 61.4587C101.419 61.6758 101.48 61.919 101.48 62.1882C101.48 62.6267 101.345 62.9828 101.071 63.265C100.975 63.3692 100.862 63.4561 100.74 63.5212C100.613 63.5907 100.435 63.6645 100.2 63.7513C100.522 63.8035 100.77 63.8642 100.949 63.925C101.127 63.9902 101.288 64.077 101.432 64.1899C101.646 64.3636 101.815 64.5807 101.933 64.8412C102.051 65.1017 102.112 65.3796 102.112 65.6793C102.112 65.9832 102.051 66.2611 101.929 66.5129C101.807 66.7648 101.637 66.9689 101.419 67.1208C101.223 67.2598 100.988 67.3553 100.713 67.4074C100.439 67.4595 100.056 67.4856 99.5593 67.4856H95.8875V67.4943ZM98.0435 60.8074V63.7861H98.4529C98.6446 63.7861 98.8406 63.7731 99.0453 63.747C99.2239 63.7209 99.3676 63.6906 99.4765 63.6515C99.5854 63.6167 99.6856 63.5646 99.777 63.4995C99.9469 63.3736 100.078 63.2086 100.173 63.0132C100.265 62.8134 100.313 62.5963 100.313 62.3532C100.313 62.1013 100.265 61.8582 100.169 61.628C100.073 61.3979 99.9469 61.2199 99.7901 61.0939C99.6507 60.9854 99.4939 60.9072 99.3197 60.8682C99.1455 60.8291 98.8754 60.8074 98.5183 60.8074H98.0435ZM98.0435 63.9381V66.0006C98.0435 66.2524 98.0609 66.4522 98.0958 66.6085C98.1306 66.7604 98.1873 66.8907 98.27 66.9993C98.4399 67.2251 98.7361 67.3336 99.1498 67.3336C99.6899 67.3336 100.117 67.186 100.43 66.8907C100.744 66.5954 100.901 66.196 100.901 65.6879C100.901 65.397 100.853 65.1278 100.757 64.8803C100.661 64.6328 100.531 64.4417 100.365 64.3071C100.064 64.0596 99.5897 63.9381 98.9495 63.9381H98.0435Z" fill="white"/>
<path d="M104.542 64.7674C104.529 64.9324 104.52 65.0497 104.52 65.1235C104.52 65.4144 104.564 65.6966 104.647 65.9745C104.734 66.2524 104.847 66.4826 104.995 66.6649C105.147 66.8516 105.33 66.9993 105.552 67.1078C105.775 67.2164 106.005 67.2685 106.249 67.2685C106.428 67.2685 106.602 67.2381 106.763 67.1773C106.924 67.1165 107.059 67.034 107.168 66.9255C107.29 66.8082 107.391 66.6215 107.478 66.3653L107.582 66.4001C107.495 66.7909 107.308 67.0861 107.02 67.2859C106.733 67.4856 106.354 67.5855 105.875 67.5855C105.461 67.5855 105.108 67.5203 104.812 67.3901C104.516 67.2598 104.268 67.0601 104.063 66.7865C103.78 66.4087 103.636 65.9441 103.636 65.3927C103.636 64.6415 103.906 64.051 104.446 63.6254C104.838 63.3128 105.287 63.1608 105.788 63.1608C106.058 63.1608 106.302 63.2086 106.532 63.3041C106.759 63.3996 106.955 63.5386 107.112 63.7166C107.356 63.9989 107.478 64.3506 107.478 64.7674H104.542ZM106.737 64.572C106.715 64.2377 106.65 63.9815 106.554 63.7991C106.463 63.6341 106.345 63.5082 106.193 63.4127C106.04 63.3171 105.884 63.2694 105.714 63.2694C105.426 63.2694 105.174 63.3953 104.96 63.6385C104.747 63.8816 104.616 64.1986 104.577 64.572H106.737Z" fill="white"/>
<path d="M108.945 60.6337L110.392 60.4513V66.0397L110.396 66.4218C110.396 66.6476 110.409 66.8169 110.435 66.9211C110.461 67.0253 110.513 67.1122 110.592 67.186C110.688 67.2772 110.858 67.3466 111.11 67.3901V67.4943H108.889V67.3901C109.089 67.364 109.233 67.3249 109.32 67.2772C109.407 67.2294 109.477 67.1469 109.529 67.0297C109.564 66.9515 109.59 66.8386 109.608 66.6823C109.621 66.526 109.629 66.3045 109.629 66.0093V62.0796C109.629 61.7409 109.621 61.4978 109.603 61.3588C109.586 61.2199 109.551 61.107 109.494 61.0201C109.438 60.929 109.368 60.8595 109.29 60.8204C109.211 60.7813 109.094 60.7553 108.941 60.7466V60.6337H108.945Z" fill="white"/>
<path d="M112.212 63.3389L113.658 63.1565V66.044L113.663 66.4261C113.663 66.6519 113.676 66.8169 113.702 66.9211C113.728 67.0253 113.78 67.1122 113.859 67.1817C113.954 67.2728 114.124 67.338 114.377 67.3857V67.49H112.156V67.3857C112.356 67.3597 112.5 67.3206 112.587 67.2728C112.674 67.2251 112.744 67.1426 112.796 67.0253C112.831 66.9472 112.857 66.8343 112.874 66.678C112.887 66.5217 112.896 66.3002 112.896 66.0093V64.7761C112.896 64.4331 112.887 64.1943 112.87 64.0553C112.852 63.9164 112.818 63.8035 112.761 63.721C112.704 63.6298 112.635 63.5603 112.556 63.5169C112.478 63.4735 112.36 63.4518 112.208 63.4387V63.3389H112.212ZM113.262 61.3588C113.131 61.3588 113.022 61.3154 112.935 61.2329C112.848 61.1504 112.804 61.0462 112.804 60.9159C112.804 60.7944 112.848 60.6858 112.935 60.6033C113.022 60.5165 113.131 60.4774 113.257 60.4774C113.384 60.4774 113.493 60.5208 113.58 60.6033C113.667 60.6858 113.71 60.7944 113.71 60.9159C113.71 61.0419 113.667 61.1504 113.58 61.2329C113.493 61.3154 113.393 61.3588 113.262 61.3588Z" fill="white"/>
<path d="M116.489 64.7674C116.476 64.9324 116.467 65.0497 116.467 65.1235C116.467 65.4144 116.511 65.6966 116.594 65.9745C116.681 66.2524 116.794 66.4826 116.942 66.6649C117.095 66.8516 117.278 66.9993 117.5 67.1078C117.722 67.2164 117.953 67.2685 118.197 67.2685C118.375 67.2685 118.549 67.2381 118.711 67.1773C118.872 67.1165 119.007 67.034 119.116 66.9255C119.238 66.8082 119.338 66.6215 119.425 66.3653L119.529 66.4001C119.442 66.7909 119.255 67.0861 118.968 67.2859C118.68 67.4856 118.301 67.5855 117.822 67.5855C117.408 67.5855 117.055 67.5203 116.759 67.3901C116.463 67.2598 116.215 67.0601 116.01 66.7865C115.727 66.4087 115.583 65.9441 115.583 65.3927C115.583 64.6415 115.853 64.051 116.393 63.6254C116.785 63.3128 117.234 63.1608 117.735 63.1608C118.005 63.1608 118.249 63.2086 118.48 63.3041C118.706 63.3996 118.902 63.5386 119.059 63.7166C119.303 63.9989 119.425 64.3506 119.425 64.7674H116.489ZM118.68 64.572C118.658 64.2377 118.593 63.9815 118.497 63.7991C118.406 63.6341 118.288 63.5082 118.136 63.4127C117.983 63.3171 117.826 63.2694 117.657 63.2694C117.369 63.2694 117.116 63.3953 116.903 63.6385C116.69 63.8816 116.559 64.1986 116.52 64.572H118.68Z" fill="white"/>
<path d="M120.627 63.2346H122.578V63.3432C122.43 63.3736 122.33 63.4083 122.278 63.4431C122.169 63.5082 122.117 63.6168 122.117 63.7644C122.117 63.8556 122.134 63.9598 122.169 64.0814C122.204 64.2029 122.265 64.3766 122.352 64.6068L123.162 66.6649L123.981 64.5243C124.103 64.2073 124.164 63.9728 124.164 63.8165C124.164 63.6515 124.112 63.5299 124.007 63.4518C123.955 63.4127 123.855 63.3779 123.711 63.3475V63.239H125.1V63.3475C124.913 63.3953 124.76 63.4778 124.647 63.5994C124.504 63.7514 124.338 64.064 124.151 64.546L122.988 67.4986H122.718L121.455 64.394C121.259 63.9164 121.119 63.6298 121.036 63.5299C120.989 63.4778 120.936 63.4387 120.88 63.4127C120.823 63.3866 120.74 63.3649 120.627 63.3519V63.2346Z" fill="white"/>
<path d="M126.938 64.7674C126.925 64.9324 126.916 65.0497 126.916 65.1235C126.916 65.4144 126.96 65.6966 127.043 65.9745C127.13 66.2524 127.243 66.4826 127.391 66.6649C127.544 66.8516 127.727 66.9993 127.949 67.1078C128.171 67.2164 128.402 67.2685 128.646 67.2685C128.824 67.2685 128.998 67.2381 129.16 67.1773C129.321 67.1165 129.456 67.034 129.565 66.9255C129.687 66.8082 129.787 66.6215 129.874 66.3653L129.978 66.4001C129.891 66.7909 129.704 67.0861 129.417 67.2859C129.129 67.4856 128.75 67.5855 128.271 67.5855C127.857 67.5855 127.504 67.5203 127.208 67.3901C126.912 67.2598 126.664 67.0601 126.459 66.7865C126.176 66.4087 126.032 65.9441 126.032 65.3927C126.032 64.6415 126.302 64.051 126.842 63.6254C127.234 63.3128 127.683 63.1608 128.184 63.1608C128.454 63.1608 128.698 63.2086 128.929 63.3041C129.155 63.3996 129.351 63.5386 129.508 63.7166C129.752 63.9989 129.874 64.3506 129.874 64.7674H126.938ZM129.129 64.572C129.107 64.2377 129.042 63.9815 128.946 63.7991C128.855 63.6341 128.737 63.5082 128.585 63.4127C128.432 63.3171 128.275 63.2694 128.106 63.2694C127.818 63.2694 127.565 63.3953 127.352 63.6385C127.139 63.8816 127.008 64.1986 126.969 64.572H129.129Z" fill="white"/>
<path d="M134.682 63.3389L136.128 63.1565V66.044L136.133 66.4261C136.133 66.6519 136.146 66.8169 136.172 66.9211C136.198 67.0253 136.25 67.1122 136.329 67.1817C136.425 67.2728 136.595 67.338 136.847 67.3857V67.49H134.626V67.3857C134.826 67.3597 134.97 67.3206 135.057 67.2728C135.144 67.2251 135.214 67.1426 135.266 67.0253C135.301 66.9472 135.327 66.8343 135.344 66.678C135.358 66.5217 135.366 66.3002 135.366 66.0093V64.7761C135.366 64.4331 135.358 64.1943 135.34 64.0553C135.323 63.9164 135.288 63.8035 135.231 63.721C135.175 63.6298 135.105 63.5603 135.027 63.5169C134.948 63.4735 134.831 63.4518 134.678 63.4387V63.3389H134.682ZM135.732 61.3588C135.601 61.3588 135.493 61.3154 135.405 61.2329C135.318 61.1504 135.275 61.0462 135.275 60.9159C135.275 60.7944 135.318 60.6858 135.405 60.6033C135.493 60.5165 135.601 60.4774 135.728 60.4774C135.854 60.4774 135.963 60.5208 136.05 60.6033C136.137 60.6858 136.181 60.7944 136.181 60.9159C136.181 61.0419 136.137 61.1504 136.05 61.2329C135.963 61.3154 135.863 61.3588 135.732 61.3588Z" fill="white"/>
<path d="M139.325 63.1565C139.373 63.3519 139.395 63.5343 139.395 63.6993V63.7818C139.809 63.3649 140.305 63.1565 140.88 63.1565C141.307 63.1565 141.656 63.2564 141.917 63.4561C142.174 63.6515 142.305 63.9337 142.305 64.2985V66.4218C142.305 66.6476 142.318 66.8169 142.344 66.9211C142.37 67.0253 142.422 67.1122 142.501 67.186C142.596 67.2772 142.766 67.3467 143.019 67.3901V67.4943H140.798V67.3901C140.998 67.364 141.142 67.3249 141.229 67.2772C141.316 67.2294 141.386 67.1469 141.438 67.0297C141.473 66.9515 141.499 66.8386 141.516 66.6823C141.534 66.526 141.538 66.3045 141.538 66.0136V64.9541C141.538 64.5894 141.525 64.3245 141.499 64.1552C141.473 63.9858 141.425 63.8469 141.355 63.7427C141.277 63.6254 141.168 63.5343 141.024 63.4691C140.88 63.404 140.724 63.3736 140.549 63.3736C140.362 63.3736 140.188 63.4083 140.027 63.4822C139.866 63.556 139.735 63.6558 139.643 63.7818C139.543 63.9164 139.478 64.0683 139.443 64.2333C139.408 64.3983 139.395 64.6806 139.395 65.0714V66.0527L139.4 66.4218C139.4 66.6476 139.413 66.8169 139.439 66.9211C139.465 67.0253 139.517 67.1122 139.596 67.186C139.691 67.2772 139.861 67.3467 140.114 67.3901V67.4943H137.892V67.3901C138.093 67.364 138.237 67.3249 138.324 67.2772C138.411 67.2294 138.48 67.1469 138.533 67.0297C138.568 66.9515 138.594 66.8386 138.611 66.6823C138.624 66.526 138.633 66.3045 138.633 66.0136V64.7805C138.633 64.4374 138.624 64.1986 138.607 64.0597C138.589 63.9207 138.555 63.8078 138.498 63.7253C138.441 63.6341 138.372 63.5647 138.293 63.5212C138.215 63.4778 138.097 63.4561 137.945 63.4431V63.3389L139.325 63.1565Z" fill="white"/>
<path d="M150.197 60.8074C149.988 60.8074 149.761 60.8161 149.517 60.8291C148.999 60.8551 148.616 60.9203 148.363 61.0245C148.111 61.1287 147.902 61.3067 147.736 61.5629C147.584 61.7974 147.47 62.1144 147.388 62.5138L147.27 62.5051L147.361 60.6554H154.165L154.256 62.5051L154.139 62.5138C154.047 62.0492 153.908 61.6975 153.712 61.4587C153.52 61.2199 153.237 61.0462 152.871 60.9463C152.558 60.8551 152.031 60.8117 151.286 60.8117V65.9224C151.286 66.2611 151.303 66.5173 151.342 66.6823C151.382 66.8473 151.451 66.9862 151.556 67.0904C151.652 67.186 151.756 67.2555 151.874 67.2989C151.991 67.3423 152.148 67.3683 152.34 67.377V67.4943H149.125V67.377C149.321 67.3683 149.478 67.3423 149.596 67.2989C149.713 67.2555 149.822 67.186 149.914 67.0904C150.018 66.9819 150.088 66.8473 150.127 66.6823C150.166 66.5173 150.184 66.2654 150.184 65.9224V60.8074H150.197Z" fill="white"/>
<path d="M158.834 67.5855C158.79 67.3814 158.769 67.173 158.769 66.9602C158.351 67.3771 157.854 67.5855 157.279 67.5855C156.861 67.5855 156.521 67.4856 156.269 67.2815C156.02 67.0818 155.898 66.7952 155.898 66.4305V64.6893L155.894 64.3072C155.894 64.0814 155.881 63.9164 155.855 63.8121C155.829 63.7079 155.776 63.6211 155.702 63.5473C155.607 63.4561 155.432 63.391 155.18 63.3475V63.239H156.656V65.7791C156.656 66.1352 156.669 66.4001 156.695 66.5738C156.722 66.7474 156.765 66.8864 156.835 66.9993C156.909 67.1122 157.013 67.2034 157.153 67.2685C157.288 67.3336 157.445 67.3684 157.614 67.3684C157.802 67.3684 157.976 67.3336 158.141 67.2598C158.307 67.186 158.433 67.0861 158.529 66.9602C158.625 66.8299 158.69 66.678 158.721 66.5086C158.751 66.3393 158.769 66.057 158.769 65.6662V64.6849L158.764 64.3158C158.764 64.09 158.751 63.925 158.725 63.8208C158.699 63.7166 158.651 63.6298 158.573 63.556C158.477 63.4648 158.303 63.3996 158.05 63.3562V63.2477H159.527V65.9658C159.527 66.3089 159.535 66.552 159.553 66.691C159.57 66.8299 159.605 66.9428 159.662 67.0297C159.723 67.1252 159.792 67.1903 159.875 67.2338C159.953 67.2772 160.071 67.3032 160.223 67.3119V67.4161L158.834 67.5855Z" fill="white"/>
<path d="M162.693 63.9294C162.815 63.721 162.95 63.5603 163.102 63.4518C163.381 63.2564 163.699 63.1565 164.052 63.1565C164.27 63.1565 164.435 63.2043 164.548 63.2998C164.653 63.3866 164.705 63.4952 164.705 63.6211C164.705 63.7123 164.675 63.7904 164.614 63.8512C164.553 63.912 164.47 63.9424 164.374 63.9424C164.261 63.9424 164.161 63.8947 164.078 63.8035L163.921 63.6341C163.799 63.5039 163.651 63.4387 163.486 63.4387C163.259 63.4387 163.081 63.5864 162.954 63.8773C162.828 64.1726 162.763 64.5807 162.763 65.1018V66.0397L162.767 66.4218C162.767 66.6476 162.78 66.8126 162.806 66.9211C162.832 67.0297 162.885 67.1122 162.963 67.186C163.055 67.2772 163.229 67.3467 163.481 67.3901V67.4943H161.26V67.3901C161.46 67.364 161.604 67.3249 161.691 67.2772C161.778 67.2294 161.848 67.1469 161.905 67.0297C161.94 66.9515 161.966 66.8386 161.983 66.6823C161.996 66.526 162.005 66.3045 162.005 66.0136V64.7805C162.005 64.4374 161.996 64.1986 161.979 64.0597C161.961 63.9207 161.926 63.8078 161.87 63.7253C161.813 63.6341 161.744 63.5647 161.665 63.5212C161.587 63.4778 161.469 63.4561 161.317 63.4431V63.3389L162.615 63.1565C162.663 63.4561 162.693 63.7166 162.693 63.9294Z" fill="white"/>
<path d="M167.04 63.1565C167.088 63.3519 167.11 63.5343 167.11 63.6993V63.7818C167.523 63.3649 168.02 63.1565 168.595 63.1565C169.022 63.1565 169.37 63.2564 169.631 63.4561C169.888 63.6515 170.019 63.9337 170.019 64.2985V66.4218C170.019 66.6476 170.032 66.8169 170.058 66.9211C170.084 67.0253 170.137 67.1122 170.215 67.186C170.307 67.2772 170.481 67.3467 170.733 67.3901V67.4943H168.512V67.3901C168.712 67.364 168.856 67.3249 168.943 67.2772C169.03 67.2294 169.1 67.1469 169.157 67.0297C169.192 66.9515 169.218 66.8386 169.235 66.6823C169.248 66.526 169.257 66.3045 169.257 66.0136V64.9541C169.257 64.5894 169.244 64.3245 169.218 64.1552C169.192 63.9858 169.144 63.8469 169.074 63.7427C168.996 63.6254 168.887 63.5343 168.743 63.4691C168.599 63.404 168.442 63.3736 168.268 63.3736C168.081 63.3736 167.907 63.4083 167.745 63.4822C167.584 63.556 167.454 63.6558 167.362 63.7818C167.262 63.9164 167.197 64.0683 167.162 64.2333C167.131 64.4027 167.114 64.6806 167.114 65.0714V66.0527L167.118 66.4218C167.118 66.6476 167.131 66.8169 167.157 66.9211C167.184 67.0253 167.236 67.1122 167.314 67.186C167.406 67.2772 167.58 67.3467 167.833 67.3901V67.4943H165.611V67.3901C165.812 67.364 165.955 67.3249 166.042 67.2772C166.13 67.2294 166.199 67.1469 166.256 67.0297C166.291 66.9515 166.317 66.8386 166.334 66.6823C166.347 66.526 166.356 66.3045 166.356 66.0136V64.7805C166.356 64.4374 166.347 64.1986 166.33 64.0597C166.313 63.9207 166.278 63.8078 166.221 63.7253C166.164 63.6341 166.095 63.5647 166.016 63.5212C165.938 63.4778 165.82 63.4561 165.668 63.4431V63.3389L167.04 63.1565Z" fill="white"/>
<path d="M171.792 63.3389L173.238 63.1565V66.044L173.242 66.4261C173.242 66.6519 173.255 66.8169 173.281 66.9211C173.308 67.0253 173.36 67.1122 173.438 67.1817C173.53 67.2728 173.704 67.338 173.957 67.3857V67.49H171.735V67.3857C171.936 67.3597 172.079 67.3206 172.166 67.2728C172.253 67.2251 172.323 67.1426 172.375 67.0253C172.41 66.9472 172.436 66.8343 172.454 66.678C172.471 66.5217 172.476 66.3002 172.476 66.0093V64.7761C172.476 64.4331 172.467 64.1943 172.449 64.0553C172.432 63.9164 172.397 63.8035 172.341 63.721C172.284 63.6298 172.214 63.5603 172.136 63.5169C172.057 63.4735 171.94 63.4518 171.787 63.4387V63.3389H171.792ZM172.841 61.3588C172.711 61.3588 172.602 61.3154 172.515 61.2329C172.428 61.1504 172.384 61.0462 172.384 60.9159C172.384 60.7944 172.428 60.6858 172.515 60.6033C172.602 60.5208 172.711 60.4774 172.837 60.4774C172.963 60.4774 173.072 60.5208 173.159 60.6033C173.247 60.6858 173.29 60.7944 173.29 60.9159C173.29 61.0419 173.247 61.1504 173.159 61.2329C173.072 61.3154 172.972 61.3588 172.841 61.3588Z" fill="white"/>
<path d="M176.435 63.1565C176.483 63.3519 176.504 63.5343 176.504 63.6993V63.7818C176.918 63.3649 177.415 63.1565 177.99 63.1565C178.417 63.1565 178.765 63.2564 179.026 63.4561C179.283 63.6515 179.414 63.9337 179.414 64.2985V66.4218C179.414 66.6476 179.427 66.8169 179.453 66.9211C179.479 67.0253 179.532 67.1122 179.61 67.186C179.701 67.2772 179.876 67.3467 180.128 67.3901V67.4943H177.907V67.3901C178.107 67.364 178.251 67.3249 178.338 67.2772C178.425 67.2294 178.495 67.1469 178.552 67.0297C178.586 66.9515 178.613 66.8386 178.63 66.6823C178.647 66.526 178.652 66.3045 178.652 66.0136V64.9541C178.652 64.5894 178.639 64.3245 178.613 64.1552C178.586 63.9858 178.539 63.8469 178.469 63.7427C178.39 63.6254 178.282 63.5343 178.138 63.4691C177.994 63.404 177.837 63.3736 177.663 63.3736C177.476 63.3736 177.302 63.4083 177.14 63.4822C176.979 63.556 176.849 63.6558 176.757 63.7818C176.657 63.9164 176.592 64.0683 176.557 64.2333C176.522 64.3983 176.509 64.6806 176.509 65.0714V66.0527L176.513 66.4218C176.513 66.6476 176.526 66.8169 176.552 66.9211C176.579 67.0253 176.631 67.1122 176.709 67.186C176.801 67.2772 176.975 67.3467 177.228 67.3901V67.4943H175.006V67.3901C175.207 67.364 175.35 67.3249 175.437 67.2772C175.524 67.2294 175.594 67.1469 175.646 67.0297C175.681 66.9515 175.707 66.8386 175.725 66.6823C175.742 66.526 175.747 66.3045 175.747 66.0136V64.7805C175.747 64.4374 175.738 64.1986 175.72 64.0597C175.703 63.9207 175.668 63.8078 175.612 63.7253C175.555 63.6341 175.485 63.5647 175.407 63.5212C175.328 63.4778 175.211 63.4561 175.058 63.4431V63.3389L176.435 63.1565Z" fill="white"/>
<path d="M182.393 67.9198L182.302 67.9459C182.245 67.8503 182.188 67.7852 182.132 67.7505C182.075 67.7157 182.006 67.694 181.923 67.694C181.783 67.694 181.666 67.7461 181.579 67.8547C181.492 67.9632 181.444 68.1022 181.444 68.2715C181.444 68.5407 181.579 68.7622 181.853 68.9402C182.123 69.1139 182.472 69.2007 182.894 69.2007C183.343 69.2007 183.704 69.1052 183.983 68.9142C184.262 68.7231 184.397 68.4713 184.397 68.163C184.397 67.9155 184.305 67.7244 184.122 67.5942C183.939 67.4639 183.674 67.3944 183.334 67.3944H182.537C182.21 67.3944 181.945 67.3163 181.744 67.1643C181.535 67.0036 181.431 66.8126 181.431 66.5868C181.431 66.348 181.54 66.1612 181.762 66.0223C181.875 65.9572 182.084 65.8833 182.384 65.8052C182.093 65.6706 181.866 65.4969 181.705 65.2754C181.544 65.0583 181.465 64.8152 181.465 64.5547C181.465 64.216 181.592 63.9164 181.844 63.6558C181.992 63.4995 182.167 63.3779 182.367 63.2911C182.567 63.2042 182.776 63.1608 182.986 63.1608C183.308 63.1608 183.635 63.2737 183.97 63.5039C184.127 63.3823 184.27 63.2911 184.397 63.239C184.523 63.1869 184.658 63.1608 184.806 63.1608C184.972 63.1608 185.102 63.1956 185.203 63.265C185.324 63.3519 185.385 63.4604 185.385 63.5864C185.385 63.6645 185.364 63.7296 185.316 63.7774C185.268 63.8295 185.207 63.8556 185.137 63.8556C185.028 63.8556 184.933 63.7991 184.841 63.6862L184.728 63.5343C184.662 63.4561 184.575 63.4127 184.458 63.4127C184.336 63.4127 184.205 63.4735 184.066 63.5994C184.34 63.9294 184.475 64.2724 184.475 64.6241C184.475 65.0627 184.279 65.4057 183.892 65.6619C183.696 65.7878 183.486 65.8747 183.26 65.9181C183.195 65.9268 182.981 65.9441 182.62 65.9702C182.128 66.0006 181.879 66.1352 181.879 66.3827C181.879 66.5955 182.088 66.704 182.506 66.704H183.338C183.63 66.704 183.878 66.7301 184.079 66.7822C184.279 66.8343 184.458 66.9168 184.606 67.0253C184.902 67.2424 185.05 67.5464 185.05 67.9415C185.05 68.3757 184.88 68.7144 184.536 68.9576C184.183 69.2094 183.665 69.3353 182.986 69.3353C182.254 69.3353 181.736 69.1877 181.431 68.8925C181.235 68.7014 181.139 68.4626 181.139 68.1803C181.139 67.9546 181.213 67.7678 181.357 67.6115C181.5 67.4552 181.679 67.377 181.884 67.377C182.036 67.377 182.158 67.4205 182.254 67.5116C182.35 67.6028 182.398 67.7201 182.398 67.8677V67.9198H182.393ZM182.175 64.5894C182.175 64.9498 182.249 65.2407 182.402 65.4708C182.554 65.6966 182.75 65.8095 182.986 65.8095C183.225 65.8095 183.412 65.6966 183.547 65.4708C183.682 65.2451 183.748 64.9324 183.748 64.5329C183.748 64.1204 183.661 63.7904 183.486 63.5429C183.36 63.3606 183.195 63.2694 182.994 63.2694C182.755 63.2694 182.559 63.391 182.415 63.6298C182.341 63.7514 182.284 63.8946 182.241 64.0683C182.197 64.242 182.175 64.4157 182.175 64.5894Z" fill="white"/>
<path d="M195.787 60.6163L195.847 62.8569H195.73C195.695 62.7613 195.665 62.6875 195.643 62.6354C195.525 62.3141 195.429 62.0753 195.355 61.919C195.225 61.6367 195.033 61.3806 194.789 61.1461C194.602 60.968 194.406 60.8421 194.205 60.7596C194.005 60.6771 193.779 60.638 193.526 60.638C193.147 60.638 192.82 60.7205 192.542 60.8855C192.298 61.0288 192.071 61.2373 191.858 61.5065C191.649 61.7757 191.475 62.084 191.339 62.427C191.148 62.9133 191.052 63.4604 191.052 64.0814C191.052 64.6068 191.117 65.0801 191.248 65.5012C191.379 65.9224 191.57 66.2741 191.823 66.5607C192.285 67.0905 192.899 67.351 193.661 67.351C194.044 67.351 194.388 67.2859 194.693 67.1513C194.998 67.021 195.233 66.8343 195.403 66.5911C195.599 66.3132 195.739 65.9398 195.826 65.4708L195.943 65.4926C195.878 66.0223 195.734 66.4391 195.512 66.7518C195.299 67.047 195.003 67.2772 194.624 67.4335C194.245 67.5898 193.809 67.668 193.313 67.668C192.851 67.668 192.407 67.5985 191.984 67.4639C191.309 67.2424 190.786 66.8473 190.407 66.2698C190.028 65.6923 189.841 65.0062 189.841 64.2073C189.841 63.595 189.95 63.0306 190.172 62.5138C190.394 61.9971 190.704 61.5803 191.096 61.2677C191.4 61.0288 191.766 60.8334 192.189 60.6945C192.611 60.5555 193.038 60.4817 193.465 60.4817C193.87 60.4817 194.301 60.5599 194.75 60.7119L195.164 60.8465C195.242 60.8769 195.316 60.8899 195.373 60.8899C195.455 60.8899 195.525 60.8551 195.577 60.7857C195.599 60.7509 195.63 60.6988 195.665 60.6207H195.787V60.6163Z" fill="white"/>
<path d="M197.211 60.6337L198.657 60.4513V66.0397L198.661 66.4218C198.661 66.6476 198.674 66.8169 198.7 66.9211C198.727 67.0253 198.779 67.1122 198.857 67.186C198.949 67.2772 199.123 67.3466 199.376 67.3901V67.4943H197.154V67.3901C197.355 67.364 197.498 67.3249 197.585 67.2772C197.672 67.2294 197.742 67.1469 197.794 67.0297C197.829 66.9515 197.855 66.8386 197.873 66.6823C197.89 66.526 197.895 66.3045 197.895 66.0093V62.0796C197.895 61.7409 197.886 61.4978 197.868 61.3588C197.851 61.2199 197.816 61.107 197.76 61.0201C197.703 60.929 197.633 60.8595 197.555 60.8204C197.476 60.7813 197.359 60.7553 197.206 60.7466V60.6337H197.211Z" fill="white"/>
<path d="M200.477 63.3389L201.924 63.1565V66.044L201.928 66.4261C201.928 66.6519 201.941 66.8169 201.967 66.9211C201.993 67.0253 202.045 67.1122 202.124 67.1817C202.215 67.2728 202.39 67.338 202.642 67.3857V67.49H200.421V67.3857C200.621 67.3597 200.765 67.3206 200.852 67.2728C200.939 67.2251 201.009 67.1426 201.061 67.0253C201.096 66.9472 201.122 66.8343 201.139 66.678C201.157 66.5217 201.161 66.3002 201.161 66.0093V64.7761C201.161 64.4331 201.153 64.1943 201.135 64.0553C201.118 63.9164 201.083 63.8035 201.026 63.721C200.97 63.6298 200.9 63.5603 200.822 63.5169C200.743 63.4735 200.626 63.4518 200.473 63.4387V63.3389H200.477ZM201.527 61.3588C201.396 61.3588 201.288 61.3154 201.2 61.2329C201.113 61.1504 201.07 61.0462 201.07 60.9159C201.07 60.7944 201.113 60.6858 201.2 60.6033C201.288 60.5208 201.396 60.4774 201.523 60.4774C201.649 60.4774 201.758 60.5208 201.845 60.6033C201.932 60.6858 201.976 60.7944 201.976 60.9159C201.976 61.0419 201.932 61.1504 201.845 61.2329C201.758 61.3154 201.658 61.3588 201.527 61.3588Z" fill="white"/>
<path d="M204.755 64.7674C204.742 64.9324 204.733 65.0497 204.733 65.1235C204.733 65.4144 204.776 65.6966 204.859 65.9745C204.942 66.2524 205.06 66.4826 205.208 66.6649C205.356 66.8516 205.543 66.9993 205.765 67.1078C205.987 67.2164 206.218 67.2685 206.462 67.2685C206.641 67.2685 206.815 67.2381 206.976 67.1773C207.137 67.1165 207.272 67.034 207.381 66.9255C207.503 66.8082 207.603 66.6215 207.69 66.3653L207.795 66.4001C207.708 66.7909 207.52 67.0861 207.233 67.2859C206.945 67.4856 206.567 67.5855 206.087 67.5855C205.674 67.5855 205.321 67.5203 205.025 67.3901C204.729 67.2598 204.48 67.0601 204.276 66.7865C203.992 66.4087 203.849 65.9441 203.849 65.3927C203.849 64.6415 204.119 64.051 204.659 63.6254C205.051 63.3128 205.499 63.1608 206 63.1608C206.27 63.1608 206.514 63.2086 206.745 63.3041C206.972 63.3996 207.168 63.5386 207.324 63.7166C207.568 63.9989 207.69 64.3506 207.69 64.7674H204.755ZM206.945 64.572C206.924 64.2377 206.858 63.9815 206.763 63.7991C206.671 63.6341 206.553 63.5082 206.401 63.4127C206.253 63.3171 206.092 63.2694 205.922 63.2694C205.634 63.2694 205.382 63.3953 205.168 63.6385C204.955 63.886 204.824 64.1986 204.785 64.572H206.945Z" fill="white"/>
<path d="M210.534 63.1565C210.582 63.3519 210.604 63.5343 210.604 63.6993V63.7818C211.018 63.3649 211.514 63.1565 212.089 63.1565C212.516 63.1565 212.865 63.2564 213.126 63.4561C213.383 63.6515 213.514 63.9337 213.514 64.2985V66.4218C213.514 66.6476 213.527 66.8169 213.553 66.9211C213.579 67.0253 213.631 67.1122 213.71 67.186C213.801 67.2772 213.975 67.3467 214.228 67.3901V67.4943H212.007V67.3901C212.207 67.364 212.351 67.3249 212.438 67.2772C212.525 67.2294 212.595 67.1469 212.651 67.0297C212.686 66.9515 212.712 66.8386 212.73 66.6823C212.747 66.526 212.751 66.3045 212.751 66.0136V64.9541C212.751 64.5894 212.738 64.3245 212.712 64.1552C212.686 63.9858 212.638 63.8469 212.568 63.7427C212.49 63.6254 212.381 63.5343 212.237 63.4691C212.094 63.404 211.937 63.3736 211.763 63.3736C211.575 63.3736 211.401 63.4083 211.24 63.4822C211.079 63.556 210.948 63.6558 210.857 63.7818C210.757 63.9164 210.691 64.0683 210.656 64.2333C210.622 64.3983 210.608 64.6806 210.608 65.0714V66.0527L210.613 66.4218C210.613 66.6476 210.626 66.8169 210.652 66.9211C210.678 67.0253 210.73 67.1122 210.809 67.186C210.9 67.2772 211.075 67.3467 211.327 67.3901V67.4943H209.106V67.3901C209.306 67.364 209.45 67.3249 209.537 67.2772C209.624 67.2294 209.694 67.1469 209.746 67.0297C209.781 66.9515 209.807 66.8386 209.824 66.6823C209.842 66.526 209.846 66.3045 209.846 66.0136V64.7805C209.846 64.4374 209.838 64.1986 209.82 64.0597C209.803 63.9207 209.768 63.8078 209.711 63.7253C209.655 63.6341 209.585 63.5647 209.507 63.5212C209.428 63.4778 209.311 63.4561 209.158 63.4431V63.3389L210.534 63.1565Z" fill="white"/>
<path d="M216.532 63.2346H217.808V63.4257H216.532V66.3436C216.532 66.6953 216.593 66.9428 216.715 67.0948C216.78 67.1773 216.863 67.2424 216.968 67.2902C217.072 67.338 217.181 67.3597 217.303 67.3597C217.451 67.3597 217.577 67.3293 217.678 67.2685C217.778 67.2077 217.887 67.0948 218.009 66.9298L218.083 66.9949C217.974 67.1947 217.817 67.3423 217.617 67.4422C217.416 67.5377 217.168 67.5855 216.872 67.5855C216.475 67.5855 216.188 67.5073 216.005 67.3553C215.909 67.2772 215.844 67.1773 215.813 67.0687C215.783 66.9559 215.77 66.7561 215.77 66.4652V63.43H215.23V63.3519C215.448 63.2824 215.648 63.1478 215.835 62.9437C215.944 62.8221 216.036 62.6962 216.105 62.5746C216.175 62.4531 216.236 62.2967 216.297 62.1013L216.349 61.9363H216.536V63.2346H216.532Z" fill="white"/>
<path d="M219.019 67.4943V66.0744H219.098C219.189 66.4218 219.307 66.6997 219.45 66.9081C219.707 67.2859 220.008 67.4726 220.352 67.4726C220.561 67.4726 220.744 67.4074 220.901 67.2815C221.066 67.1426 221.153 66.9428 221.153 66.6867C221.153 66.4782 221.092 66.2915 220.975 66.1352C220.909 66.0527 220.822 65.9745 220.722 65.9051C220.622 65.8356 220.448 65.7357 220.208 65.6098C219.786 65.384 219.507 65.1973 219.368 65.0497C219.167 64.8369 219.067 64.5894 219.067 64.3072C219.067 64.0075 219.167 63.747 219.368 63.5299C219.598 63.2824 219.908 63.1608 220.287 63.1608C220.456 63.1608 220.618 63.1912 220.766 63.252L220.936 63.3258C220.988 63.3475 221.036 63.3562 221.075 63.3562C221.14 63.3562 221.197 63.3041 221.258 63.2042H221.358L221.415 64.3419H221.31C221.275 64.1812 221.236 64.051 221.193 63.9554C221.149 63.8599 221.092 63.7644 221.014 63.6732C220.909 63.5473 220.792 63.4474 220.652 63.3736C220.517 63.2998 220.382 63.265 220.247 63.265C220.06 63.265 219.899 63.3345 219.768 63.4691C219.638 63.6037 219.568 63.7687 219.568 63.9685C219.568 64.1335 219.629 64.2811 219.746 64.4114C219.864 64.5416 220.047 64.6632 220.295 64.7761L220.827 65.0149C221.145 65.1582 221.38 65.3362 221.541 65.5534C221.698 65.7661 221.776 66.018 221.776 66.3089C221.776 66.6606 221.663 66.9515 221.432 67.1817C221.171 67.4509 220.835 67.5811 220.426 67.5811C220.204 67.5811 219.982 67.5377 219.751 67.4509C219.603 67.3944 219.516 67.3597 219.485 67.3553C219.455 67.351 219.415 67.3423 219.368 67.3423C219.25 67.3423 219.163 67.3944 219.102 67.4943H219.019Z" fill="white"/>
<path d="M226.489 63.3389L227.935 63.1565V66.044L227.939 66.4261C227.939 66.6519 227.952 66.8169 227.978 66.9211C228.005 67.0253 228.057 67.1122 228.135 67.1817C228.227 67.2728 228.401 67.338 228.654 67.3857V67.49H226.432V67.3857C226.633 67.3597 226.776 67.3206 226.863 67.2728C226.951 67.2251 227.02 67.1426 227.073 67.0253C227.107 66.9472 227.133 66.8343 227.151 66.678C227.168 66.5217 227.173 66.3002 227.173 66.0093V64.7761C227.173 64.4331 227.164 64.1943 227.147 64.0553C227.129 63.9164 227.094 63.8035 227.038 63.721C226.981 63.6298 226.911 63.5603 226.833 63.5169C226.755 63.4735 226.637 63.4518 226.485 63.4387V63.3389H226.489ZM227.534 61.3588C227.404 61.3588 227.295 61.3154 227.208 61.2329C227.12 61.1504 227.077 61.0462 227.077 60.9159C227.077 60.7944 227.12 60.6858 227.208 60.6033C227.295 60.5208 227.404 60.4774 227.53 60.4774C227.656 60.4774 227.765 60.5208 227.852 60.6033C227.939 60.6858 227.983 60.7944 227.983 60.9159C227.983 61.0419 227.939 61.1504 227.852 61.2329C227.765 61.3154 227.665 61.3588 227.534 61.3588Z" fill="white"/>
<path d="M231.132 63.1565C231.18 63.3519 231.202 63.5343 231.202 63.6993V63.7818C231.615 63.3649 232.112 63.1565 232.687 63.1565C233.114 63.1565 233.462 63.2564 233.723 63.4561C233.98 63.6515 234.111 63.9337 234.111 64.2985V66.4218C234.111 66.6476 234.124 66.8169 234.15 66.9211C234.176 67.0253 234.229 67.1122 234.307 67.186C234.399 67.2772 234.573 67.3467 234.825 67.3901V67.4943H232.604V67.3901C232.804 67.364 232.948 67.3249 233.035 67.2772C233.122 67.2294 233.192 67.1469 233.249 67.0297C233.284 66.9515 233.31 66.8386 233.327 66.6823C233.344 66.526 233.349 66.3045 233.349 66.0136V64.9541C233.349 64.5894 233.336 64.3245 233.31 64.1552C233.283 63.9858 233.236 63.8469 233.166 63.7427C233.088 63.6254 232.979 63.5343 232.835 63.4691C232.691 63.404 232.534 63.3736 232.36 63.3736C232.173 63.3736 231.999 63.4083 231.837 63.4822C231.676 63.556 231.546 63.6558 231.454 63.7818C231.354 63.9164 231.289 64.0683 231.254 64.2333C231.219 64.3983 231.206 64.6806 231.206 65.0714V66.0527L231.21 66.4218C231.21 66.6476 231.223 66.8169 231.249 66.9211C231.276 67.0253 231.328 67.1122 231.406 67.186C231.498 67.2772 231.672 67.3467 231.925 67.3901V67.4943H229.703V67.3901C229.904 67.364 230.047 67.3249 230.134 67.2772C230.222 67.2294 230.291 67.1469 230.343 67.0297C230.378 66.9515 230.404 66.8386 230.422 66.6823C230.439 66.526 230.444 66.3045 230.444 66.0136V64.7805C230.444 64.4374 230.435 64.1986 230.418 64.0597C230.4 63.9207 230.365 63.8078 230.309 63.7253C230.252 63.6341 230.182 63.5647 230.104 63.5212C230.026 63.4778 229.908 63.4561 229.756 63.4431V63.3389L231.132 63.1565Z" fill="white"/>
<path d="M237.129 63.2346H238.406V63.4257H237.129V66.3436C237.129 66.6953 237.19 66.9428 237.312 67.0948C237.378 67.1773 237.46 67.2424 237.565 67.2902C237.67 67.338 237.778 67.3597 237.9 67.3597C238.048 67.3597 238.175 67.3293 238.275 67.2685C238.375 67.2077 238.484 67.0948 238.606 66.9298L238.68 66.9949C238.571 67.1947 238.414 67.3423 238.214 67.4422C238.014 67.5377 237.765 67.5855 237.469 67.5855C237.073 67.5855 236.785 67.5073 236.602 67.3553C236.507 67.2772 236.441 67.1773 236.411 67.0687C236.38 66.9559 236.367 66.7561 236.367 66.4652V63.43H235.827V63.3519C236.045 63.2824 236.245 63.1478 236.433 62.9437C236.541 62.8221 236.633 62.6962 236.703 62.5746C236.772 62.4531 236.833 62.2967 236.894 62.1013L236.947 61.9363H237.134V63.2346H237.129Z" fill="white"/>
<path d="M239.442 65.3797C239.442 64.8369 239.643 64.3549 240.043 63.9337C240.531 63.417 241.119 63.1608 241.799 63.1608C242.478 63.1608 243.062 63.417 243.55 63.9337C243.95 64.3593 244.151 64.8456 244.151 65.3883C244.151 65.9224 243.959 66.4001 243.576 66.8169C243.105 67.3293 242.513 67.5898 241.794 67.5898C241.076 67.5898 240.483 67.3336 240.008 66.8169C239.826 66.6172 239.682 66.3914 239.586 66.1439C239.49 65.892 239.442 65.6402 239.442 65.3797ZM240.357 65.3189C240.357 65.9007 240.488 66.3914 240.749 66.7952C241.045 67.2468 241.402 67.4726 241.829 67.4726C242.012 67.4726 242.186 67.4205 242.356 67.3206C242.526 67.2207 242.674 67.0818 242.8 66.8994C242.931 66.7127 243.036 66.4782 243.118 66.196C243.197 65.9137 243.24 65.6402 243.24 65.3797C243.24 65.1061 243.197 64.8282 243.114 64.5503C243.027 64.2724 242.914 64.0336 242.77 63.8295C242.495 63.4517 242.16 63.265 241.759 63.265C241.38 63.265 241.054 63.4648 240.779 63.8599C240.496 64.2594 240.357 64.7457 240.357 65.3189Z" fill="white"/>
<path d="M250.984 63.9207V65.9224C250.984 66.2611 251.002 66.513 251.041 66.678C251.076 66.8386 251.15 66.9776 251.25 67.0861C251.342 67.1816 251.446 67.2555 251.568 67.2989C251.69 67.3423 251.847 67.3727 252.039 67.3814V67.4986H248.824V67.3814C248.985 67.3814 249.138 67.3553 249.281 67.3032C249.425 67.2511 249.538 67.1816 249.617 67.0948C249.708 66.9906 249.778 66.8473 249.817 66.6693C249.856 66.4869 249.878 66.2394 249.878 65.9224V62.2273C249.878 62.0145 249.865 61.793 249.843 61.5586C249.808 61.2633 249.665 61.0462 249.412 60.9029C249.273 60.8247 249.077 60.7813 248.824 60.7683V60.6554H254.077L254.221 62.2837L254.107 62.3098C254.025 62.0579 253.946 61.8669 253.877 61.7366C253.72 61.4457 253.498 61.2199 253.215 61.0592C253.049 60.9637 252.862 60.8986 252.648 60.8638C252.435 60.8291 252.139 60.8074 251.764 60.8074H250.984V63.7644H251.185C251.777 63.7644 252.208 63.6341 252.478 63.3692C252.596 63.2563 252.683 63.1217 252.744 62.9654C252.805 62.8091 252.844 62.605 252.866 62.3575L252.984 62.3619L252.953 65.4014H252.831C252.796 65.0583 252.731 64.7978 252.644 64.6111C252.557 64.4244 252.422 64.2767 252.239 64.1639C252.104 64.0814 251.938 64.0206 251.742 63.9815C251.546 63.9424 251.294 63.9207 250.984 63.9207Z" fill="white"/>
<path d="M259.399 67.008L259.486 67.0601C259.365 67.4118 259.09 67.5855 258.655 67.5855C258.415 67.5855 258.219 67.529 258.062 67.4118C257.958 67.3336 257.849 67.2034 257.74 67.0123C257.513 67.2121 257.344 67.3467 257.23 67.4075C257.013 67.529 256.76 67.5898 256.468 67.5898C256.098 67.5898 255.806 67.503 255.588 67.3249C255.371 67.1469 255.262 66.9081 255.262 66.6085C255.262 66.3306 255.349 66.1005 255.527 65.9138C255.627 65.8095 255.745 65.727 255.876 65.6662C256.006 65.6055 256.194 65.5403 256.442 65.4795C256.734 65.4057 256.947 65.3449 257.087 65.2928C257.226 65.2407 257.344 65.1843 257.435 65.1105C257.544 65.0323 257.618 64.9455 257.657 64.8412C257.696 64.737 257.718 64.5937 257.718 64.4114C257.718 64.0206 257.644 63.734 257.496 63.556C257.431 63.4735 257.344 63.404 257.239 63.3562C257.134 63.3041 257.026 63.2824 256.908 63.2824C256.769 63.2824 256.647 63.3171 256.542 63.3866C256.433 63.4561 256.355 63.5516 256.303 63.6775L256.176 63.9685C256.111 64.1248 255.989 64.2029 255.815 64.2029C255.702 64.2029 255.606 64.1639 255.527 64.0901C255.449 64.0162 255.414 63.9207 255.414 63.8078C255.414 63.6385 255.536 63.4952 255.776 63.3779C255.906 63.3172 256.067 63.2694 256.263 63.2303C256.455 63.1912 256.647 63.1739 256.83 63.1739C257.039 63.1739 257.256 63.1999 257.479 63.252C257.705 63.3041 257.892 63.3736 258.04 63.4561C258.258 63.582 258.393 63.7383 258.45 63.9381C258.476 64.0379 258.489 64.2073 258.489 64.4461V66.3002C258.489 66.6128 258.502 66.8299 258.528 66.9428C258.585 67.1817 258.724 67.2989 258.942 67.2989C259.047 67.2989 259.125 67.2815 259.186 67.2424C259.247 67.1903 259.321 67.1165 259.399 67.008ZM257.736 65.0323C257.557 65.1843 257.357 65.3145 257.139 65.4274C256.895 65.5577 256.725 65.6576 256.634 65.7227C256.542 65.7878 256.455 65.8703 256.377 65.9615C256.22 66.1569 256.141 66.3827 256.141 66.6389C256.141 66.8603 256.202 67.0427 256.324 67.186C256.446 67.3293 256.599 67.4031 256.786 67.4031C256.952 67.4031 257.104 67.351 257.248 67.2511C257.391 67.1469 257.5 67.0123 257.574 66.843C257.679 66.6215 257.731 66.2959 257.731 65.8703V65.0323H257.736Z" fill="white"/>
<path d="M261.699 63.1565C261.76 63.3909 261.799 63.6211 261.817 63.8512C262.03 63.6254 262.265 63.4561 262.527 63.3345C262.788 63.2129 263.062 63.1521 263.35 63.1521C263.663 63.1521 263.929 63.2303 264.138 63.3909C264.265 63.4865 264.413 63.6558 264.574 63.899C264.826 63.6428 265.083 63.4517 265.345 63.3345C265.602 63.2129 265.88 63.1521 266.181 63.1521C266.582 63.1521 266.908 63.2607 267.165 63.4821C267.418 63.6992 267.544 63.9858 267.544 64.3419V66.0397L267.549 66.4218C267.549 66.6476 267.562 66.8169 267.588 66.9211C267.614 67.0253 267.666 67.1122 267.74 67.186C267.836 67.2772 268.01 67.3466 268.263 67.3901V67.4943H266.042V67.3901C266.242 67.364 266.386 67.3249 266.473 67.2772C266.56 67.2294 266.63 67.1469 266.686 67.0297C266.721 66.9515 266.747 66.8386 266.765 66.6823C266.778 66.526 266.786 66.3045 266.786 66.0136V65.0583C266.786 64.6893 266.773 64.4157 266.752 64.2464C266.73 64.077 266.682 63.9294 266.617 63.8121C266.46 63.5299 266.19 63.3866 265.802 63.3866C265.388 63.3866 265.088 63.5386 264.9 63.8469C264.735 64.1117 264.657 64.5199 264.657 65.08V66.0483L264.661 66.4305C264.661 66.6562 264.674 66.8256 264.7 66.9298C264.726 67.034 264.779 67.1209 264.853 67.1947C264.944 67.2859 265.123 67.3553 265.375 67.3988V67.503H263.154V67.3988C263.354 67.3727 263.498 67.3336 263.585 67.2859C263.672 67.2381 263.742 67.1556 263.798 67.0384C263.833 66.9602 263.859 66.8473 263.877 66.691C263.89 66.5347 263.899 66.3132 263.899 66.0223V65.0974C263.899 64.7066 263.886 64.42 263.859 64.2377C263.833 64.0553 263.785 63.9077 263.716 63.7948C263.642 63.6732 263.537 63.582 263.407 63.5125C263.271 63.4431 263.123 63.4083 262.954 63.4083C262.762 63.4083 262.583 63.4517 262.418 63.5429C262.252 63.6341 262.117 63.7557 262.021 63.9077C261.93 64.0466 261.865 64.2073 261.83 64.4027C261.791 64.5937 261.773 64.8412 261.773 65.1452V66.0614L261.778 66.4305C261.778 66.6562 261.791 66.8256 261.817 66.9298C261.843 67.034 261.895 67.1209 261.974 67.1947C262.065 67.2859 262.239 67.3553 262.492 67.3988V67.503H260.271V67.3988C260.471 67.3727 260.615 67.3336 260.702 67.2859C260.789 67.2381 260.859 67.1556 260.911 67.0384C260.946 66.9602 260.972 66.8473 260.989 66.691C261.007 66.5347 261.011 66.3132 261.011 66.0179V64.7848C261.011 64.4417 261.002 64.2029 260.985 64.064C260.967 63.925 260.933 63.8121 260.876 63.7253C260.819 63.6341 260.75 63.5646 260.671 63.5212C260.593 63.4778 260.475 63.4517 260.323 63.4431V63.3388L261.699 63.1565Z" fill="white"/>
<path d="M269.326 63.3389L270.772 63.1565V66.044L270.776 66.4261C270.776 66.6519 270.789 66.8169 270.815 66.9211C270.841 67.0253 270.894 67.1122 270.972 67.1817C271.064 67.2728 271.238 67.338 271.49 67.3857V67.49H269.269V67.3857C269.469 67.3597 269.613 67.3206 269.7 67.2728C269.787 67.2251 269.857 67.1426 269.909 67.0253C269.944 66.9472 269.97 66.8343 269.988 66.678C270.005 66.5217 270.01 66.3002 270.01 66.0093V64.7761C270.01 64.4331 270.001 64.1943 269.983 64.0553C269.966 63.9164 269.931 63.8035 269.874 63.721C269.818 63.6298 269.748 63.5603 269.67 63.5169C269.591 63.4735 269.474 63.4518 269.321 63.4387V63.3389H269.326ZM270.371 61.3588C270.24 61.3588 270.131 61.3154 270.044 61.2329C269.957 61.1504 269.914 61.0462 269.914 60.9159C269.914 60.7944 269.957 60.6858 270.044 60.6033C270.131 60.5208 270.24 60.4774 270.367 60.4774C270.493 60.4774 270.602 60.5208 270.689 60.6033C270.776 60.6858 270.82 60.7944 270.82 60.9159C270.82 61.0419 270.776 61.1504 270.689 61.2329C270.602 61.3154 270.502 61.3588 270.371 61.3588Z" fill="white"/>
<path d="M272.588 60.6337L274.034 60.4513V66.0397L274.038 66.4218C274.038 66.6476 274.051 66.8169 274.078 66.9211C274.104 67.0253 274.156 67.1122 274.234 67.186C274.326 67.2772 274.5 67.3466 274.753 67.3901V67.4943H272.531V67.3901C272.732 67.364 272.875 67.3249 272.963 67.2772C273.05 67.2294 273.119 67.1469 273.172 67.0297C273.206 66.9515 273.233 66.8386 273.25 66.6823C273.267 66.526 273.272 66.3045 273.272 66.0093V62.0796C273.272 61.7409 273.263 61.4978 273.246 61.3588C273.228 61.2199 273.193 61.107 273.137 61.0201C273.08 60.929 273.01 60.8595 272.932 60.8204C272.854 60.7813 272.736 60.7553 272.584 60.7466V60.6337H272.588Z" fill="white"/>
<path d="M275.65 63.2346H277.601V63.3432C277.462 63.3649 277.366 63.391 277.305 63.4214C277.174 63.4952 277.109 63.6081 277.109 63.76C277.109 63.8947 277.179 64.1335 277.314 64.4765L278.154 66.6215L278.886 64.8152C279.069 64.3636 279.156 64.0466 279.156 63.8599C279.156 63.7079 279.113 63.5907 279.03 63.5039C278.947 63.417 278.825 63.3606 278.664 63.3432V63.2346H280.101V63.3432C279.958 63.3823 279.849 63.4257 279.783 63.4691C279.714 63.5125 279.648 63.582 279.583 63.6732C279.487 63.8208 279.33 64.1508 279.121 64.6589L277.662 68.189C277.488 68.6102 277.349 68.8838 277.24 69.0097C277.057 69.2225 276.83 69.3267 276.552 69.3267C276.373 69.3267 276.229 69.2919 276.12 69.2225C276.012 69.153 275.955 69.0661 275.955 68.9532C275.955 68.8664 275.985 68.7969 276.051 68.7448C276.116 68.6927 276.199 68.6667 276.303 68.6667C276.39 68.6667 276.491 68.6884 276.604 68.7361C276.713 68.7796 276.787 68.8056 276.817 68.8143C276.848 68.823 276.887 68.8317 276.931 68.8317C277.14 68.8317 277.305 68.6754 277.436 68.3627L277.593 67.9806C277.658 67.8199 277.693 67.694 277.693 67.6072C277.693 67.4856 277.627 67.2685 277.501 66.9602L276.46 64.4635L276.312 64.1031C276.221 63.8903 276.151 63.7383 276.099 63.6472C276.046 63.556 275.998 63.4908 275.946 63.4518C275.863 63.3866 275.763 63.3519 275.646 63.3389V63.2346H275.65Z" fill="white"/>
<defs>
<linearGradient id="paint0_linear_21_104" x1="55.7881" y1="29.5829" x2="7.41058" y2="26.3167" gradientUnits="userSpaceOnUse">
<stop stop-color="#00C4FF"/>
<stop offset="1" stop-color="#001973"/>
</linearGradient>
<linearGradient id="paint1_linear_21_104" x1="29.0219" y1="50.2821" x2="2.62407" y2="48.4999" gradientUnits="userSpaceOnUse">
<stop stop-color="#001973"/>
<stop offset="1" stop-color="#00C4FF"/>
</linearGradient>
<linearGradient id="paint2_linear_21_104" x1="-2.46826" y1="73.5403" x2="45.9088" y2="76.8064" gradientUnits="userSpaceOnUse">
<stop stop-color="#00C4FF"/>
<stop offset="1" stop-color="#001973"/>
</linearGradient>
<linearGradient id="paint3_linear_21_104" x1="24.298" y1="52.841" x2="50.6968" y2="54.6233" gradientUnits="userSpaceOnUse">
<stop stop-color="#001973"/>
<stop offset="1" stop-color="#00C4FF"/>
</linearGradient>
</defs>
</svg>
